<svg width="88" height="88" viewBox="0 0 88 88" fill="none" xmlns="http://www.w3.org/2000/svg">
<g clip-path="url(#clip0_10_4410)">
<path d="M0 71.3371V16.0216C0 14.9691 0.0567796 13.9166 0.283898 12.9225C0.511016 11.9285 0.794914 10.876 1.19237 9.94042C1.58983 9.00485 2.04406 8.06928 2.61186 7.13371C3.17966 6.19814 3.86101 5.43799 4.54237 4.67784C5.2805 3.91769 6.07541 3.27449 6.92711 2.68976C7.7788 2.10503 8.68727 1.57877 9.65253 1.22793C10.6178 0.818623 11.583 0.526258 12.5483 0.292365C13.5703 0.0584731 14.5356 0 15.5576 0H72.4507C73.4728 0 74.4948 0.0584731 75.46 0.292365C76.4821 0.526258 77.4473 0.818623 78.3558 1.22793C79.2643 1.63725 80.1727 2.10503 81.0812 2.68976C81.9897 3.27449 82.7278 3.97617 83.466 4.67784C84.2041 5.43799 84.8287 6.25662 85.3965 7.13371C85.9643 8.01081 86.4753 8.94638 86.8159 9.94042C87.2134 10.9345 87.4973 11.9285 87.7244 12.9225C87.9515 13.9751 88.0083 14.9691 88.0083 16.0216V71.3371C88.0083 72.3896 87.9515 73.4422 87.7244 74.4362C87.4973 75.4887 87.2134 76.4828 86.8159 77.4183C86.4185 78.4124 85.9643 79.2895 85.3965 80.225C84.8287 81.1606 84.1473 81.9207 83.466 82.6809C82.7278 83.441 81.9329 84.0843 81.0812 84.669C80.2295 85.2537 79.3211 85.78 78.3558 86.1308C77.3905 86.5401 76.4253 86.8325 75.46 87.0664C74.438 87.3003 73.4728 87.3587 72.4507 87.3587H15.6144C14.5923 87.3587 13.5703 87.3003 12.6051 87.0664C11.583 86.8325 10.6178 86.5401 9.70931 86.1308C8.74405 85.7215 7.89236 85.2537 6.98389 84.669C6.07541 84.0843 5.33728 83.3826 4.59914 82.6809C3.86101 81.9207 3.23644 81.1021 2.66864 80.225C2.10084 79.3479 1.58983 78.4124 1.24915 77.4183C0.851693 76.4243 0.567796 75.4302 0.340677 74.4362C0.113559 73.5006 0 72.4481 0 71.3371H0Z" fill="black"/>
<path d="M31.172 64.0865C29.0143 64.0865 27.0271 63.8526 25.2669 63.5017C23.5067 63.1509 22.0305 62.6246 20.7813 62.0399C20.4406 61.8645 20.3271 61.5136 20.3271 61.0459V53.9121C20.3271 53.7367 20.3839 53.6783 20.4974 53.5613C20.5542 53.5028 20.7245 53.5028 20.8381 53.6198C22.4847 54.6723 24.1881 55.4324 26.005 55.9587C27.822 56.485 29.5821 56.7189 31.3423 56.7189C33.5567 56.7189 35.1465 56.368 36.1118 55.6663C37.077 54.9647 37.5313 54.0876 37.5313 53.0351C37.5313 52.3334 37.3609 51.7486 37.077 51.2224C36.7364 50.6961 36.2254 50.1699 35.4304 49.6436C34.6355 49.1174 33.6135 48.5911 32.2508 48.0648L29.355 46.7784C26.9703 45.7259 25.1533 44.6149 23.7906 43.4455C22.4279 42.276 21.5194 40.9896 21.0652 39.6447C20.5542 38.2998 20.2703 36.838 20.2703 35.2592C20.2703 33.0957 20.7813 31.1077 21.8033 29.4119C22.8822 27.6577 24.3584 26.2544 26.4593 25.2604C28.5033 24.2663 31.1152 23.7401 34.1813 23.7401C35.9982 23.7401 37.7584 23.857 39.405 24.0909C40.9948 24.3248 42.3008 24.7341 43.266 25.2019C43.5499 25.3773 43.6635 25.6112 43.6635 25.962V32.7449C43.6635 32.8034 43.6067 32.9203 43.4931 32.9788C43.4364 33.0373 43.266 33.0373 43.1525 32.9203C42.0169 32.2771 40.5974 31.8093 39.1211 31.4C37.5881 31.1661 35.9415 30.9907 34.2948 30.9907C33.216 30.9907 32.194 31.0492 31.4559 31.2831C30.661 31.517 30.0364 31.7509 29.5821 32.0432C29.1279 32.3356 28.7304 32.7449 28.5033 33.1542C28.2762 33.622 28.1627 34.0898 28.1627 34.5576C28.1627 35.2008 28.333 35.7855 28.6737 36.2533C29.0143 36.7795 29.6389 37.2473 30.4338 37.7736C31.2287 38.2998 32.3643 38.8846 33.7838 39.5278L35.9415 40.3464C38.4965 41.4574 40.4838 42.5684 41.9033 43.7963C43.3228 45.0242 44.3448 46.3107 44.9126 47.7725C45.4804 49.2343 45.7643 50.6961 45.7643 52.3918C45.7643 54.7308 45.1397 56.8358 43.9474 58.59C42.6982 60.3442 41.0516 61.7475 38.894 62.6831C36.7364 63.6187 34.1245 64.0865 31.172 64.0865ZM65.41 57.596V62.5077C65.41 62.917 65.2397 63.2094 64.9558 63.2678C64.2177 63.5017 63.4228 63.6771 62.6279 63.8526C61.8329 64.028 60.8677 64.0865 59.8456 64.0865C57.2906 64.0865 55.3601 63.3848 53.8838 62.0399C52.4643 60.695 51.7262 58.473 51.7262 55.4909V40.6972H48.2626C47.9219 40.6972 47.8084 40.5218 47.8084 40.171V34.2067C47.8084 33.8559 47.9787 33.7389 48.3194 33.7389H51.7829C51.8397 33.0373 51.8397 32.2771 51.9533 31.4C52.0101 30.5229 52.0669 29.5874 52.1804 28.7103C52.2372 27.8332 52.3507 27.073 52.4075 26.4883C52.4643 26.3713 52.4643 26.2544 52.5779 26.1374C52.6346 26.079 52.7482 25.962 52.8618 25.9036L59.7889 25.0265C59.9024 24.968 60.016 24.968 60.0728 25.0265C60.1296 25.0849 60.1863 25.2019 60.1863 25.3773C60.1295 26.3129 60.0728 27.5408 60.016 29.1196C59.9592 30.6983 59.9592 32.2186 59.9024 33.7389H65.2965C65.5236 33.7389 65.6372 33.9144 65.6372 34.2067V40.2879C65.6372 40.5218 65.5804 40.6388 65.3533 40.6972H59.8456V53.5028C59.8456 54.8477 60.0728 55.8418 60.527 56.4265C60.9812 57.0112 61.7762 57.3036 62.9685 57.3036C63.3092 57.3036 63.6499 57.3036 63.9338 57.2451C64.2745 57.2451 64.5584 57.1866 64.899 57.1866C65.0126 57.1282 65.1261 57.1282 65.2397 57.2451C65.3533 57.3036 65.41 57.4205 65.41 57.596V57.596Z" fill="white"/>
</g>
<defs>
<clipPath id="clip0_10_4410">
<rect width="88" height="87.4172" fill="white"/>
</clipPath>
</defs>
</svg>
