<svg width="190" height="135" viewBox="0 0 190 135" fill="none" xmlns="http://www.w3.org/2000/svg">
<g clip-path="url(#clip0_10_4416)">
<path d="M50 71.3371V16.0216C50 14.9691 50.0568 13.9166 50.2839 12.9225C50.511 11.9285 50.7949 10.876 51.1924 9.94042C51.5898 9.00485 52.0441 8.06928 52.6119 7.13371C53.1797 6.19814 53.861 5.43799 54.5424 4.67784C55.2805 3.91769 56.0754 3.27449 56.9271 2.68976C57.7788 2.10503 58.6873 1.57877 59.6525 1.22793C60.6178 0.818623 61.583 0.526258 62.5483 0.292365C63.5703 0.0584731 64.5356 0 65.5576 0H122.451C123.473 0 124.495 0.0584731 125.46 0.292365C126.482 0.526258 127.447 0.818623 128.356 1.22793C129.264 1.63725 130.173 2.10503 131.081 2.68976C131.99 3.27449 132.728 3.97617 133.466 4.67784C134.204 5.43799 134.829 6.25662 135.396 7.13371C135.964 8.01081 136.475 8.94638 136.816 9.94042C137.213 10.9345 137.497 11.9285 137.724 12.9225C137.952 13.9751 138.008 14.9691 138.008 16.0216V71.3371C138.008 72.3896 137.952 73.4422 137.724 74.4362C137.497 75.4887 137.213 76.4828 136.816 77.4183C136.418 78.4124 135.964 79.2895 135.396 80.225C134.829 81.1606 134.147 81.9207 133.466 82.6809C132.728 83.441 131.933 84.0843 131.081 84.669C130.23 85.2537 129.321 85.78 128.356 86.1308C127.391 86.5401 126.425 86.8325 125.46 87.0664C124.438 87.3003 123.473 87.3587 122.451 87.3587H65.6144C64.5923 87.3587 63.5703 87.3003 62.6051 87.0664C61.583 86.8325 60.6178 86.5401 59.7093 86.1308C58.7441 85.7215 57.8924 85.2537 56.9839 84.669C56.0754 84.0843 55.3373 83.3826 54.5991 82.6809C53.861 81.9207 53.2364 81.1021 52.6686 80.225C52.1008 79.3479 51.5898 78.4124 51.2492 77.4183C50.8517 76.4243 50.5678 75.4302 50.3407 74.4362C50.1136 73.5006 50 72.4481 50 71.3371V71.3371Z" fill="black"/>
<path d="M81.172 64.0865C79.0143 64.0865 77.0271 63.8526 75.2669 63.5017C73.5067 63.1509 72.0305 62.6246 70.7813 62.0399C70.4406 61.8645 70.3271 61.5136 70.3271 61.0459V53.9121C70.3271 53.7367 70.3839 53.6783 70.4974 53.5613C70.5542 53.5028 70.7245 53.5028 70.8381 53.6198C72.4847 54.6723 74.1881 55.4324 76.005 55.9587C77.822 56.485 79.5821 56.7189 81.3423 56.7189C83.5567 56.7189 85.1465 56.368 86.1118 55.6663C87.077 54.9647 87.5313 54.0876 87.5313 53.0351C87.5313 52.3334 87.3609 51.7486 87.077 51.2224C86.7364 50.6961 86.2254 50.1699 85.4304 49.6436C84.6355 49.1174 83.6135 48.5911 82.2508 48.0648L79.355 46.7784C76.9703 45.7259 75.1533 44.6149 73.7906 43.4455C72.4279 42.276 71.5194 40.9896 71.0652 39.6447C70.5542 38.2998 70.2703 36.838 70.2703 35.2592C70.2703 33.0957 70.7813 31.1077 71.8033 29.4119C72.8822 27.6577 74.3584 26.2544 76.4593 25.2604C78.5033 24.2663 81.1152 23.7401 84.1813 23.7401C85.9982 23.7401 87.7584 23.857 89.405 24.0909C90.9948 24.3248 92.3008 24.7341 93.266 25.2019C93.5499 25.3773 93.6635 25.6112 93.6635 25.962V32.7449C93.6635 32.8034 93.6067 32.9203 93.4931 32.9788C93.4364 33.0373 93.266 33.0373 93.1525 32.9203C92.0169 32.2771 90.5974 31.8093 89.1211 31.4C87.5881 31.1661 85.9415 30.9907 84.2948 30.9907C83.216 30.9907 82.194 31.0492 81.4559 31.2831C80.661 31.517 80.0364 31.7509 79.5821 32.0432C79.1279 32.3356 78.7304 32.7449 78.5033 33.1542C78.2762 33.622 78.1627 34.0898 78.1627 34.5576C78.1627 35.2008 78.333 35.7855 78.6737 36.2533C79.0143 36.7795 79.6389 37.2473 80.4338 37.7736C81.2287 38.2998 82.3643 38.8846 83.7838 39.5278L85.9415 40.3464C88.4965 41.4574 90.4838 42.5684 91.9033 43.7963C93.3228 45.0242 94.3448 46.3106 94.9126 47.7725C95.4804 49.2343 95.7643 50.6961 95.7643 52.3918C95.7643 54.7308 95.1397 56.8358 93.9474 58.59C92.6982 60.3442 91.0516 61.7475 88.894 62.6831C86.7364 63.6187 84.1245 64.0865 81.172 64.0865ZM115.41 57.596V62.5077C115.41 62.917 115.24 63.2094 114.956 63.2678C114.218 63.5017 113.423 63.6771 112.628 63.8526C111.833 64.028 110.868 64.0865 109.846 64.0865C107.291 64.0865 105.36 63.3848 103.884 62.0399C102.464 60.695 101.726 58.473 101.726 55.4909V40.6972H98.2626C97.9219 40.6972 97.8084 40.5218 97.8084 40.171V34.2067C97.8084 33.8559 97.9787 33.7389 98.3194 33.7389H101.783C101.84 33.0373 101.84 32.2771 101.953 31.4C102.01 30.5229 102.067 29.5874 102.18 28.7103C102.237 27.8332 102.351 27.073 102.408 26.4883C102.464 26.3713 102.464 26.2544 102.578 26.1374C102.635 26.079 102.748 25.962 102.862 25.9036L109.789 25.0265C109.902 24.968 110.016 24.968 110.073 25.0265C110.13 25.0849 110.186 25.2019 110.186 25.3773C110.13 26.3129 110.073 27.5408 110.016 29.1196C109.959 30.6983 109.959 32.2186 109.902 33.7389H115.296C115.524 33.7389 115.637 33.9144 115.637 34.2067V40.2879C115.637 40.5218 115.58 40.6388 115.353 40.6972H109.846V53.5028C109.846 54.8477 110.073 55.8418 110.527 56.4265C110.981 57.0112 111.776 57.3036 112.969 57.3036C113.309 57.3036 113.65 57.3036 113.934 57.2451C114.274 57.2451 114.558 57.1866 114.899 57.1866C115.013 57.1282 115.126 57.1282 115.24 57.2451C115.353 57.3036 115.41 57.4205 115.41 57.596Z" fill="white"/>
</g>
<path d="M9.21143 131L7.97241 127.471H3.06763L1.82861 131H0.213623L4.75952 118.67H6.28052L10.8264 131H9.21143ZM5.49438 120.541L3.52051 126.164H7.51953L5.54565 120.541H5.49438ZM15.2014 131.154C14.0621 131.154 13.1421 130.735 12.4414 129.898C11.7464 129.06 11.3989 127.947 11.3989 126.557C11.3989 125.172 11.7464 124.062 12.4414 123.224C13.1364 122.381 14.045 121.959 15.1672 121.959C15.7939 121.959 16.355 122.102 16.8506 122.387C17.3462 122.672 17.7279 123.062 17.9956 123.557H18.0298V118.67H19.5166V131H18.0981V129.496H18.0725C17.782 130.014 17.3889 130.422 16.8933 130.718C16.3977 131.009 15.8337 131.154 15.2014 131.154ZM15.4834 123.267C14.6973 123.267 14.0735 123.566 13.6121 124.164C13.1506 124.757 12.9199 125.554 12.9199 126.557C12.9199 127.565 13.1506 128.365 13.6121 128.958C14.0735 129.55 14.6973 129.846 15.4834 129.846C16.2524 129.846 16.8705 129.547 17.3376 128.949C17.8048 128.345 18.0383 127.548 18.0383 126.557C18.0383 125.565 17.8019 124.771 17.3291 124.173C16.862 123.569 16.2467 123.267 15.4834 123.267ZM25.2075 131.154C23.9657 131.154 22.9688 130.741 22.2168 129.915C21.4648 129.083 21.0889 127.964 21.0889 126.557C21.0889 125.15 21.4648 124.033 22.2168 123.207C22.9688 122.375 23.9657 121.959 25.2075 121.959C26.4437 121.959 27.4377 122.375 28.1897 123.207C28.9417 124.033 29.3176 125.15 29.3176 126.557C29.3176 127.958 28.9417 129.075 28.1897 129.906C27.4377 130.738 26.4437 131.154 25.2075 131.154ZM23.302 128.975C23.7748 129.556 24.41 129.846 25.2075 129.846C26.005 129.846 26.6374 129.559 27.1045 128.983C27.5716 128.402 27.8052 127.593 27.8052 126.557C27.8052 125.52 27.5716 124.714 27.1045 124.138C26.6374 123.557 26.005 123.267 25.2075 123.267C24.41 123.267 23.7748 123.557 23.302 124.138C22.8349 124.719 22.6013 125.526 22.6013 126.557C22.6013 127.588 22.8349 128.394 23.302 128.975ZM35.2393 131.154C34.6012 131.154 34.0316 131.009 33.5303 130.718C33.0347 130.427 32.6416 130.02 32.3511 129.496H32.3169V131H30.8984V118.67H32.3853V123.6H32.4194C32.6986 123.087 33.0859 122.686 33.5815 122.395C34.0828 122.105 34.644 121.959 35.2649 121.959C36.3871 121.959 37.2929 122.378 37.9822 123.216C38.6715 124.053 39.0161 125.167 39.0161 126.557C39.0161 127.952 38.6715 129.069 37.9822 129.906C37.2929 130.738 36.3786 131.154 35.2393 131.154ZM34.9487 123.267C34.1911 123.267 33.573 123.572 33.0945 124.181C32.616 124.785 32.3767 125.577 32.3767 126.557C32.3767 127.542 32.616 128.337 33.0945 128.941C33.573 129.545 34.1911 129.846 34.9487 129.846C35.7349 129.846 36.3558 129.553 36.8115 128.966C37.2673 128.374 37.4951 127.571 37.4951 126.557C37.4951 125.548 37.2673 124.748 36.8115 124.156C36.3558 123.563 35.7349 123.267 34.9487 123.267ZM44.0918 123.25C43.4025 123.25 42.83 123.489 42.3743 123.968C41.9242 124.44 41.6764 125.05 41.6309 125.796H46.4587C46.4417 125.044 46.2166 124.432 45.7837 123.959C45.3507 123.486 44.7868 123.25 44.0918 123.25ZM46.4246 128.454H47.8857C47.7547 129.24 47.3446 129.886 46.6553 130.393C45.9717 130.9 45.1485 131.154 44.1858 131.154C42.9154 131.154 41.9157 130.744 41.1865 129.923C40.4574 129.103 40.0928 127.992 40.0928 126.591C40.0928 125.201 40.4574 124.081 41.1865 123.233C41.9214 122.384 42.8984 121.959 44.1174 121.959C45.3137 121.959 46.2594 122.361 46.9543 123.164C47.6493 123.968 47.9968 125.044 47.9968 126.394V126.958H41.6223V127.044C41.6223 127.898 41.8559 128.582 42.323 129.094C42.7901 129.607 43.4224 129.864 44.22 129.864C44.7782 129.864 45.2539 129.735 45.647 129.479C46.04 129.223 46.2992 128.881 46.4246 128.454ZM52.7307 127.608H54.2773C54.3514 128.274 54.6761 128.81 55.2515 129.214C55.8325 129.619 56.5645 129.821 57.4475 129.821C58.2792 129.821 58.9657 129.624 59.5068 129.231C60.0537 128.832 60.3271 128.331 60.3271 127.727C60.3271 127.209 60.1363 126.782 59.7546 126.446C59.3787 126.109 58.7748 125.833 57.9431 125.617L56.3623 125.207C55.223 124.916 54.3913 124.512 53.8672 123.993C53.3431 123.469 53.0811 122.788 53.0811 121.951C53.0811 120.926 53.4855 120.088 54.2944 119.439C55.109 118.789 56.1572 118.465 57.439 118.465C58.6637 118.465 59.6777 118.795 60.481 119.456C61.2842 120.111 61.7029 120.954 61.7371 121.985H60.199C60.1306 121.324 59.8458 120.803 59.3445 120.421C58.8432 120.04 58.1909 119.849 57.3877 119.849C56.5902 119.849 55.9379 120.037 55.4309 120.413C54.9296 120.789 54.679 121.279 54.679 121.883C54.679 122.35 54.8612 122.734 55.2258 123.036C55.5961 123.332 56.2 123.589 57.0374 123.805L58.3276 124.147C59.6037 124.466 60.5208 124.89 61.0791 125.42C61.6374 125.95 61.9165 126.656 61.9165 127.539C61.9165 128.667 61.5007 129.562 60.6689 130.222C59.8429 130.878 58.7207 131.205 57.3022 131.205C55.992 131.205 54.9211 130.878 54.0894 130.222C53.2576 129.567 52.8048 128.696 52.7307 127.608ZM63.9587 119.969H65.4456V122.113H67.1716V123.335H65.4456V128.616C65.4456 129.02 65.5339 129.319 65.7104 129.513C65.887 129.701 66.1662 129.795 66.5479 129.795C66.7871 129.795 66.9922 129.781 67.1631 129.752V131C66.9694 131.046 66.6561 131.068 66.2231 131.068C65.4085 131.068 64.8275 130.886 64.48 130.521C64.1325 130.157 63.9587 129.547 63.9587 128.693V123.335H62.6343V122.113H63.9587V119.969ZM72.1875 131.154C70.9456 131.154 69.9487 130.741 69.1968 129.915C68.4448 129.083 68.0688 127.964 68.0688 126.557C68.0688 125.15 68.4448 124.033 69.1968 123.207C69.9487 122.375 70.9456 121.959 72.1875 121.959C73.4237 121.959 74.4177 122.375 75.1697 123.207C75.9216 124.033 76.2976 125.15 76.2976 126.557C76.2976 127.958 75.9216 129.075 75.1697 129.906C74.4177 130.738 73.4237 131.154 72.1875 131.154ZM70.282 128.975C70.7548 129.556 71.39 129.846 72.1875 129.846C72.985 129.846 73.6174 129.559 74.0845 128.983C74.5516 128.402 74.7852 127.593 74.7852 126.557C74.7852 125.52 74.5516 124.714 74.0845 124.138C73.6174 123.557 72.985 123.267 72.1875 123.267C71.39 123.267 70.7548 123.557 70.282 124.138C69.8149 124.719 69.5813 125.526 69.5813 126.557C69.5813 127.588 69.8149 128.394 70.282 128.975ZM85.1843 125.027H83.7317C83.6178 124.514 83.3643 124.093 82.9712 123.762C82.5838 123.432 82.0797 123.267 81.4587 123.267C80.684 123.267 80.0602 123.566 79.5874 124.164C79.1146 124.757 78.8782 125.554 78.8782 126.557C78.8782 127.576 79.1146 128.38 79.5874 128.966C80.0659 129.553 80.6954 129.846 81.4758 129.846C82.074 129.846 82.5667 129.698 82.9541 129.402C83.3472 129.1 83.6092 128.679 83.7402 128.137H85.2014C85.0875 129.026 84.6859 129.752 83.9966 130.316C83.313 130.875 82.4699 131.154 81.4673 131.154C80.2254 131.154 79.2314 130.744 78.4851 129.923C77.7389 129.097 77.3657 127.975 77.3657 126.557C77.3657 125.161 77.7389 124.047 78.4851 123.216C79.2314 122.378 80.2197 121.959 81.4502 121.959C82.5098 121.959 83.37 122.259 84.0308 122.857C84.6973 123.455 85.0818 124.178 85.1843 125.027ZM88.1323 126.061L92.063 122.113H93.866L90.0122 125.95L93.9856 131H92.2595L88.9612 126.864L88.1323 127.65V131H86.6455V118.67H88.1323V126.061ZM98.2922 127.608H99.8389C99.9129 128.274 100.238 128.81 100.813 129.214C101.394 129.619 102.126 129.821 103.009 129.821C103.841 129.821 104.527 129.624 105.068 129.231C105.615 128.832 105.889 128.331 105.889 127.727C105.889 127.209 105.698 126.782 105.316 126.446C104.94 126.109 104.336 125.833 103.505 125.617L101.924 125.207C100.785 124.916 99.9528 124.512 99.4287 123.993C98.9046 123.469 98.6426 122.788 98.6426 121.951C98.6426 120.926 99.047 120.088 99.856 119.439C100.671 118.789 101.719 118.465 103 118.465C104.225 118.465 105.239 118.795 106.042 119.456C106.846 120.111 107.264 120.954 107.299 121.985H105.76C105.692 121.324 105.407 120.803 104.906 120.421C104.405 120.04 103.752 119.849 102.949 119.849C102.152 119.849 101.499 120.037 100.992 120.413C100.491 120.789 100.24 121.279 100.24 121.883C100.24 122.35 100.423 122.734 100.787 123.036C101.158 123.332 101.761 123.589 102.599 123.805L103.889 124.147C105.165 124.466 106.082 124.89 106.641 125.42C107.199 125.95 107.478 126.656 107.478 127.539C107.478 128.667 107.062 129.562 106.23 130.222C105.404 130.878 104.282 131.205 102.864 131.205C101.554 131.205 100.483 130.878 99.6509 130.222C98.8192 129.567 98.3663 128.696 98.2922 127.608ZM116.339 122.113V131H114.929V129.556H114.895C114.342 130.621 113.403 131.154 112.075 131.154C111.112 131.154 110.358 130.863 109.811 130.282C109.27 129.695 108.999 128.895 108.999 127.881V122.113H110.486V127.616C110.486 129.097 111.169 129.838 112.537 129.838C113.254 129.838 113.818 129.613 114.229 129.163C114.644 128.707 114.852 128.098 114.852 127.334V122.113H116.339ZM122.688 131.154C122.05 131.154 121.48 131.009 120.979 130.718C120.483 130.427 120.09 130.02 119.8 129.496H119.766V131H118.347V118.67H119.834V123.6H119.868C120.147 123.087 120.535 122.686 121.03 122.395C121.532 122.105 122.093 121.959 122.714 121.959C123.836 121.959 124.742 122.378 125.431 123.216C126.12 124.053 126.465 125.167 126.465 126.557C126.465 127.952 126.12 129.069 125.431 129.906C124.742 130.738 123.827 131.154 122.688 131.154ZM122.397 123.267C121.64 123.267 121.022 123.572 120.543 124.181C120.065 124.785 119.825 125.577 119.825 126.557C119.825 127.542 120.065 128.337 120.543 128.941C121.022 129.545 121.64 129.846 122.397 129.846C123.184 129.846 123.805 129.553 124.26 128.966C124.716 128.374 124.944 127.571 124.944 126.557C124.944 125.548 124.716 124.748 124.26 124.156C123.805 123.563 123.184 123.267 122.397 123.267ZM127.823 124.566C127.823 123.802 128.131 123.179 128.746 122.694C129.367 122.204 130.165 121.959 131.139 121.959C132.056 121.959 132.819 122.204 133.429 122.694C134.038 123.184 134.36 123.805 134.395 124.557H132.976C132.925 124.124 132.731 123.785 132.395 123.54C132.065 123.295 131.629 123.173 131.088 123.173C130.546 123.173 130.111 123.295 129.78 123.54C129.45 123.78 129.285 124.096 129.285 124.489C129.285 125.093 129.777 125.52 130.763 125.771L132.139 126.104C133.033 126.332 133.663 126.628 134.027 126.992C134.397 127.351 134.583 127.858 134.583 128.513C134.583 129.288 134.252 129.923 133.591 130.419C132.931 130.909 132.082 131.154 131.045 131.154C130.076 131.154 129.276 130.915 128.644 130.436C128.017 129.952 127.664 129.314 127.584 128.522H129.071C129.236 129.468 129.926 129.94 131.139 129.94C131.737 129.94 132.21 129.824 132.557 129.59C132.911 129.351 133.087 129.029 133.087 128.625C133.087 128.306 132.982 128.052 132.771 127.864C132.566 127.676 132.216 127.517 131.72 127.385L130.156 126.984C128.601 126.585 127.823 125.779 127.823 124.566ZM143.512 125.027H142.059C141.945 124.514 141.692 124.093 141.299 123.762C140.911 123.432 140.407 123.267 139.786 123.267C139.012 123.267 138.388 123.566 137.915 124.164C137.442 124.757 137.206 125.554 137.206 126.557C137.206 127.576 137.442 128.38 137.915 128.966C138.394 129.553 139.023 129.846 139.803 129.846C140.402 129.846 140.894 129.698 141.282 129.402C141.675 129.1 141.937 128.679 142.068 128.137H143.529C143.415 129.026 143.014 129.752 142.324 130.316C141.641 130.875 140.798 131.154 139.795 131.154C138.553 131.154 137.559 130.744 136.813 129.923C136.066 129.097 135.693 127.975 135.693 126.557C135.693 125.161 136.066 124.047 136.813 123.216C137.559 122.378 138.547 121.959 139.778 121.959C140.837 121.959 141.698 122.259 142.358 122.857C143.025 123.455 143.409 124.178 143.512 125.027ZM144.896 131V122.113H146.298V123.566H146.332C146.48 123.07 146.745 122.68 147.126 122.395C147.514 122.105 147.967 121.959 148.485 121.959C148.605 121.959 148.804 121.979 149.083 122.019V123.463C148.924 123.406 148.659 123.378 148.289 123.378C147.713 123.378 147.252 123.569 146.904 123.95C146.557 124.332 146.383 124.836 146.383 125.463V131H144.896ZM150.374 131V122.113H151.86V131H150.374ZM151.117 120.618C150.866 120.618 150.65 120.527 150.468 120.344C150.285 120.162 150.194 119.946 150.194 119.695C150.194 119.439 150.285 119.222 150.468 119.046C150.65 118.863 150.866 118.772 151.117 118.772C151.373 118.772 151.593 118.863 151.775 119.046C151.957 119.222 152.048 119.439 152.048 119.695C152.048 119.946 151.957 120.162 151.775 120.344C151.593 120.527 151.373 120.618 151.117 120.618ZM158.184 121.959C159.323 121.959 160.24 122.378 160.935 123.216C161.636 124.053 161.986 125.167 161.986 126.557C161.986 127.941 161.639 129.055 160.944 129.898C160.249 130.735 159.34 131.154 158.218 131.154C157.591 131.154 157.03 131.011 156.534 130.727C156.039 130.442 155.657 130.052 155.389 129.556H155.355V133.965H153.868V122.113H155.278V123.617H155.312C155.592 123.104 155.982 122.7 156.483 122.404C156.984 122.108 157.551 121.959 158.184 121.959ZM157.893 129.846C158.685 129.846 159.312 129.55 159.773 128.958C160.234 128.365 160.465 127.565 160.465 126.557C160.465 125.548 160.234 124.748 159.773 124.156C159.312 123.563 158.685 123.267 157.893 123.267C157.13 123.267 156.514 123.569 156.047 124.173C155.58 124.776 155.347 125.571 155.347 126.557C155.347 127.548 155.58 128.345 156.047 128.949C156.514 129.547 157.13 129.846 157.893 129.846ZM163.969 119.969H165.455V122.113H167.181V123.335H165.455V128.616C165.455 129.02 165.544 129.319 165.72 129.513C165.897 129.701 166.176 129.795 166.558 129.795C166.797 129.795 167.002 129.781 167.173 129.752V131C166.979 131.046 166.666 131.068 166.233 131.068C165.418 131.068 164.837 130.886 164.49 130.521C164.142 130.157 163.969 129.547 163.969 128.693V123.335H162.644V122.113H163.969V119.969ZM168.848 131V122.113H170.334V131H168.848ZM169.591 120.618C169.34 120.618 169.124 120.527 168.942 120.344C168.759 120.162 168.668 119.946 168.668 119.695C168.668 119.439 168.759 119.222 168.942 119.046C169.124 118.863 169.34 118.772 169.591 118.772C169.847 118.772 170.067 118.863 170.249 119.046C170.431 119.222 170.522 119.439 170.522 119.695C170.522 119.946 170.431 120.162 170.249 120.344C170.067 120.527 169.847 120.618 169.591 120.618ZM176.025 131.154C174.784 131.154 173.787 130.741 173.035 129.915C172.283 129.083 171.907 127.964 171.907 126.557C171.907 125.15 172.283 124.033 173.035 123.207C173.787 122.375 174.784 121.959 176.025 121.959C177.262 121.959 178.256 122.375 179.008 123.207C179.76 124.033 180.135 125.15 180.135 126.557C180.135 127.958 179.76 129.075 179.008 129.906C178.256 130.738 177.262 131.154 176.025 131.154ZM174.12 128.975C174.593 129.556 175.228 129.846 176.025 129.846C176.823 129.846 177.455 129.559 177.922 128.983C178.389 128.402 178.623 127.593 178.623 126.557C178.623 125.52 178.389 124.714 177.922 124.138C177.455 123.557 176.823 123.267 176.025 123.267C175.228 123.267 174.593 123.557 174.12 124.138C173.653 124.719 173.419 125.526 173.419 126.557C173.419 127.588 173.653 128.394 174.12 128.975ZM181.639 131V122.113H183.041V123.532H183.075C183.331 123.036 183.699 122.652 184.177 122.378C184.656 122.099 185.228 121.959 185.895 121.959C186.863 121.959 187.618 122.253 188.159 122.84C188.7 123.421 188.971 124.218 188.971 125.232V131H187.484V125.497C187.484 124.774 187.313 124.224 186.971 123.848C186.63 123.466 186.12 123.275 185.442 123.275C184.741 123.275 184.18 123.503 183.759 123.959C183.337 124.415 183.126 125.019 183.126 125.771V131H181.639Z" fill="black"/>
<defs>
<clipPath id="clip0_10_4416">
<rect width="88" height="87.4172" fill="white" transform="translate(50)"/>
</clipPath>
</defs>
</svg>
