<svg width="88" height="88" viewBox="0 0 88 88" fill="none" xmlns="http://www.w3.org/2000/svg">
<path d="M48.1251 2.75C42.0845 2.75289 36.143 4.28442 30.8538 7.20196C25.5646 10.1195 21.0997 14.3281 17.8751 19.4359V12.375C17.8751 12.0103 17.7302 11.6606 17.4723 11.4027C17.2145 11.1449 16.8647 11 16.5001 11V4.125C16.5001 3.76033 16.3552 3.41059 16.0973 3.15273C15.8395 2.89487 15.4897 2.75 15.1251 2.75H6.87506C6.51039 2.75 6.16066 2.89487 5.90279 3.15273C5.64493 3.41059 5.50006 3.76033 5.50006 4.125V11C5.13539 11 4.78566 11.1449 4.52779 11.4027C4.26993 11.6606 4.12507 12.0103 4.12506 12.375V26.125C4.12507 26.4897 4.26993 26.8394 4.52779 27.0973C4.78566 27.3551 5.13539 27.5 5.50006 27.5H6.87506V34.375H5.50006C5.13539 34.375 4.78566 34.5199 4.52779 34.7777C4.26993 35.0356 4.12507 35.3853 4.12506 35.75V41.25C4.12507 41.6147 4.26993 41.9644 4.52779 42.2223C4.78566 42.4801 5.13539 42.625 5.50006 42.625H6.87506V46.75C6.87506 54.3646 9.13304 61.8082 13.3635 68.1395C17.5939 74.4708 23.6068 79.4054 30.6418 82.3194C37.6767 85.2333 45.4178 85.9958 52.8861 84.5102C60.3543 83.0247 67.2144 79.3579 72.5987 73.9736C76.185 70.4068 79.0282 66.1642 80.9638 61.4913C82.8994 56.8184 83.8889 51.8079 83.8751 46.75V38.5C83.8751 18.7874 67.8376 2.75 48.1251 2.75ZM15.1158 24.75H6.87506V13.75H15.1251V24.7277L15.1158 24.75ZM8.25006 5.5H13.7501V11H8.25006V5.5ZM9.62506 27.5H12.3751V34.375H9.62506V27.5ZM6.87506 37.125H20.6251V39.875H6.87506V37.125ZM15.1251 42.625H17.8751V46.75C17.8751 61.9136 30.2115 74.25 45.3751 74.25C60.5386 74.25 72.8751 61.9136 72.8751 46.75V39.875C72.8722 37.3232 71.8572 34.8767 70.0528 33.0723C68.2484 31.2679 65.8019 30.2529 63.2501 30.25H59.1251V27.5H63.2501C66.531 27.5037 69.6765 28.8087 71.9964 31.1286C74.3164 33.4486 75.6214 36.5941 75.6251 39.875V46.75C75.6251 63.4299 62.055 77 45.3751 77C28.6951 77 15.1251 63.4299 15.1251 46.75V42.625ZM63.2501 24.75H59.1251V23.375C59.1251 23.0103 58.9802 22.6606 58.7223 22.4027C58.4645 22.1449 58.1147 22 57.7501 22H44.0001C43.6354 22 43.2857 22.1449 43.0278 22.4027C42.7699 22.6606 42.6251 23.0103 42.6251 23.375H35.7501C35.3854 23.375 35.0357 23.5199 34.7778 23.7777C34.5199 24.0356 34.3751 24.3853 34.3751 24.75V33C34.3751 33.3647 34.5199 33.7144 34.7778 33.9723C35.0357 34.2301 35.3854 34.375 35.7501 34.375H42.6251C42.6251 34.7397 42.7699 35.0894 43.0278 35.3473C43.2857 35.6051 43.6354 35.75 44.0001 35.75H57.7501C58.1147 35.75 58.4645 35.6051 58.7223 35.3473C58.9802 35.0894 59.1251 34.7397 59.1251 34.375V33H63.2501C65.0728 33.0021 66.8203 33.7271 68.1091 35.0159C69.398 36.3048 70.123 38.0523 70.1251 39.875V46.75C70.1251 60.3973 59.0223 71.5 45.3751 71.5C31.7279 71.5 20.6251 60.3973 20.6251 46.75V42.625H22.0001C22.3647 42.625 22.7145 42.4801 22.9723 42.2223C23.2302 41.9644 23.3751 41.6147 23.3751 41.25V35.75C23.3751 35.3853 23.2302 35.0356 22.9723 34.7777C22.7145 34.5199 22.3647 34.375 22.0001 34.375H20.934C21.9217 27.8708 25.208 21.936 30.1968 17.6474C35.1855 13.3587 41.5463 11.0003 48.1251 11C60.0561 11 70.2352 18.6382 74.0336 29.2808C72.6285 27.8455 70.9508 26.7053 69.099 25.9272C67.2472 25.1492 65.2587 24.7489 63.2501 24.75ZM42.6251 31.625H37.1251V26.125H42.6251V31.625ZM45.3751 24.75H56.3751V33H45.3751V24.75ZM81.1251 46.75C81.1251 66.4626 65.0876 82.5 45.3751 82.5C25.6625 82.5 9.62506 66.4626 9.62506 46.75V42.625H12.3751V46.75C12.3751 64.9463 27.1788 79.75 45.3751 79.75C63.5713 79.75 78.3751 64.9463 78.3751 46.75V38.5C78.3751 21.8201 64.805 8.25 48.1251 8.25C40.8167 8.25031 33.7555 10.8961 28.2464 15.6985C22.7374 20.5008 19.153 27.135 18.1556 34.375H15.3809C16.3868 26.4003 20.2683 19.0667 26.297 13.7504C32.3256 8.43407 40.0871 5.50045 48.1251 5.5C66.3213 5.5 81.1251 20.3037 81.1251 38.5V46.75Z" fill="black"/>
</svg>
