<svg width="109" height="135" viewBox="0 0 109 135" fill="none" xmlns="http://www.w3.org/2000/svg">
<path d="M6.27197 131.205C4.56868 131.205 3.21574 130.633 2.21313 129.488C1.21623 128.337 0.717773 126.785 0.717773 124.831C0.717773 122.894 1.22192 121.35 2.23022 120.199C3.23853 119.043 4.58577 118.465 6.27197 118.465C7.61637 118.465 8.7557 118.841 9.68994 119.593C10.6299 120.339 11.1967 121.327 11.3904 122.558H9.83521C9.63582 121.749 9.21143 121.102 8.56201 120.618C7.9126 120.128 7.14925 119.883 6.27197 119.883C5.06999 119.883 4.10726 120.333 3.38379 121.233C2.66032 122.133 2.29858 123.332 2.29858 124.831C2.29858 126.346 2.65747 127.551 3.37524 128.445C4.09302 129.339 5.06144 129.787 6.28052 129.787C7.18628 129.787 7.94963 129.579 8.57056 129.163C9.19149 128.747 9.61304 128.163 9.83521 127.411H11.3904C11.1056 128.63 10.5216 129.567 9.63867 130.222C8.7557 130.878 7.63346 131.205 6.27197 131.205ZM13.0566 131V118.67H14.5435V123.532H14.5776C14.8283 123.03 15.1929 122.643 15.6714 122.37C16.1556 122.096 16.731 121.959 17.3975 121.959C18.3659 121.959 19.1292 122.259 19.6875 122.857C20.2458 123.455 20.5249 124.255 20.5249 125.258V131H19.0381V125.531C19.0381 124.813 18.8586 124.258 18.4998 123.865C18.1466 123.472 17.6253 123.275 16.936 123.275C16.2012 123.275 15.6173 123.506 15.1843 123.968C14.7571 124.429 14.5435 125.047 14.5435 125.822V131H13.0566ZM25.3442 129.889C26.0449 129.889 26.6317 129.673 27.1045 129.24C27.583 128.801 27.8223 128.263 27.8223 127.625V126.898L25.4468 127.044C24.8486 127.084 24.3844 127.229 24.054 127.479C23.7292 127.73 23.5669 128.066 23.5669 128.488C23.5669 128.909 23.7292 129.248 24.054 129.505C24.3787 129.761 24.8088 129.889 25.3442 129.889ZM25.011 131.154C24.128 131.154 23.4131 130.909 22.8662 130.419C22.325 129.929 22.0544 129.285 22.0544 128.488C22.0544 127.724 22.3336 127.115 22.8918 126.659C23.4558 126.203 24.2505 125.947 25.2759 125.89L27.8223 125.745V125.001C27.8223 124.46 27.6514 124.036 27.3096 123.728C26.9678 123.421 26.4893 123.267 25.874 123.267C25.3101 123.267 24.8515 123.392 24.4983 123.643C24.1451 123.888 23.9201 124.232 23.8232 124.677H22.3877C22.439 123.885 22.7808 123.236 23.4131 122.729C24.0511 122.216 24.8828 121.959 25.9082 121.959C26.9507 121.959 27.7767 122.222 28.3862 122.746C29.0015 123.27 29.3091 123.973 29.3091 124.856V131H27.8992V129.47H27.865C27.5972 129.977 27.2042 130.385 26.6858 130.692C26.1674 131 25.6091 131.154 25.011 131.154ZM34.812 129.761C35.5868 129.761 36.2105 129.465 36.6833 128.872C37.1562 128.28 37.3926 127.497 37.3926 126.522C37.3926 125.543 37.1562 124.757 36.6833 124.164C36.2105 123.566 35.5868 123.267 34.812 123.267C34.043 123.267 33.4277 123.563 32.9663 124.156C32.5106 124.742 32.2827 125.531 32.2827 126.522C32.2827 127.514 32.5106 128.303 32.9663 128.889C33.4277 129.47 34.043 129.761 34.812 129.761ZM34.8633 134.35C33.8892 134.35 33.0518 134.102 32.3511 133.606C31.6504 133.116 31.2374 132.493 31.1121 131.735H32.6416C32.7897 132.145 33.0688 132.473 33.479 132.718C33.8892 132.962 34.3705 133.085 34.9231 133.085C35.6864 133.085 36.2874 132.883 36.7261 132.478C37.1704 132.074 37.3926 131.538 37.3926 130.872V129.47H37.3584C37.0793 129.96 36.689 130.351 36.1877 130.641C35.6864 130.926 35.1282 131.068 34.5129 131.068C33.3793 131.068 32.4707 130.655 31.7871 129.829C31.1035 129.003 30.7617 127.901 30.7617 126.522C30.7617 125.132 31.1035 124.024 31.7871 123.198C32.4764 122.372 33.3964 121.959 34.5471 121.959C35.1737 121.959 35.7377 122.105 36.239 122.395C36.7403 122.686 37.1391 123.09 37.4353 123.609H37.4609V122.113H38.8794V130.821C38.8794 131.886 38.5148 132.74 37.7856 133.384C37.0565 134.028 36.0824 134.35 34.8633 134.35ZM40.896 131V122.113H42.3828V131H40.896ZM41.6394 120.618C41.3888 120.618 41.1723 120.527 40.99 120.344C40.8077 120.162 40.7166 119.946 40.7166 119.695C40.7166 119.439 40.8077 119.222 40.99 119.046C41.1723 118.863 41.3888 118.772 41.6394 118.772C41.8958 118.772 42.1151 118.863 42.2974 119.046C42.4797 119.222 42.5708 119.439 42.5708 119.695C42.5708 119.946 42.4797 120.162 42.2974 120.344C42.1151 120.527 41.8958 120.618 41.6394 120.618ZM44.3909 131V122.113H45.7922V123.532H45.8264C46.0828 123.036 46.4502 122.652 46.9287 122.378C47.4072 122.099 47.9797 121.959 48.6462 121.959C49.6147 121.959 50.3695 122.253 50.9106 122.84C51.4518 123.421 51.7224 124.218 51.7224 125.232V131H50.2356V125.497C50.2356 124.774 50.0647 124.224 49.7229 123.848C49.3811 123.466 48.8713 123.275 48.1934 123.275C47.4927 123.275 46.9316 123.503 46.51 123.959C46.0885 124.415 45.8777 125.019 45.8777 125.771V131H44.3909ZM57.2339 129.761C58.0086 129.761 58.6324 129.465 59.1052 128.872C59.578 128.28 59.8145 127.497 59.8145 126.522C59.8145 125.543 59.578 124.757 59.1052 124.164C58.6324 123.566 58.0086 123.267 57.2339 123.267C56.4648 123.267 55.8496 123.563 55.3882 124.156C54.9325 124.742 54.7046 125.531 54.7046 126.522C54.7046 127.514 54.9325 128.303 55.3882 128.889C55.8496 129.47 56.4648 129.761 57.2339 129.761ZM57.2852 134.35C56.311 134.35 55.4736 134.102 54.7729 133.606C54.0723 133.116 53.6593 132.493 53.5339 131.735H55.0635C55.2116 132.145 55.4907 132.473 55.9009 132.718C56.311 132.962 56.7924 133.085 57.345 133.085C58.1083 133.085 58.7093 132.883 59.1479 132.478C59.5923 132.074 59.8145 131.538 59.8145 130.872V129.47H59.7803C59.5011 129.96 59.1109 130.351 58.6096 130.641C58.1083 130.926 57.55 131.068 56.9348 131.068C55.8012 131.068 54.8926 130.655 54.209 129.829C53.5254 129.003 53.1836 127.901 53.1836 126.522C53.1836 125.132 53.5254 124.024 54.209 123.198C54.8983 122.372 55.8183 121.959 56.969 121.959C57.5956 121.959 58.1596 122.105 58.6609 122.395C59.1622 122.686 59.561 123.09 59.8572 123.609H59.8828V122.113H61.3013V130.821C61.3013 131.886 60.9367 132.74 60.2075 133.384C59.4784 134.028 58.5042 134.35 57.2852 134.35ZM72.1362 131.205C70.4329 131.205 69.08 130.633 68.0774 129.488C67.0805 128.337 66.582 126.785 66.582 124.831C66.582 122.894 67.0862 121.35 68.0945 120.199C69.1028 119.043 70.45 118.465 72.1362 118.465C73.4806 118.465 74.62 118.841 75.5542 119.593C76.4941 120.339 77.061 121.327 77.2546 122.558H75.6995C75.5001 121.749 75.0757 121.102 74.4263 120.618C73.7769 120.128 73.0135 119.883 72.1362 119.883C70.9342 119.883 69.9715 120.333 69.248 121.233C68.5246 122.133 68.1628 123.332 68.1628 124.831C68.1628 126.346 68.5217 127.551 69.2395 128.445C69.9573 129.339 70.9257 129.787 72.1448 129.787C73.0505 129.787 73.8139 129.579 74.4348 129.163C75.0557 128.747 75.4773 128.163 75.6995 127.411H77.2546C76.9698 128.63 76.3859 129.567 75.5029 130.222C74.62 130.878 73.4977 131.205 72.1362 131.205ZM81.7749 129.889C82.4756 129.889 83.0623 129.673 83.5352 129.24C84.0137 128.801 84.2529 128.263 84.2529 127.625V126.898L81.8774 127.044C81.2793 127.084 80.815 127.229 80.4846 127.479C80.1599 127.73 79.9976 128.066 79.9976 128.488C79.9976 128.909 80.1599 129.248 80.4846 129.505C80.8093 129.761 81.2394 129.889 81.7749 129.889ZM81.4417 131.154C80.5587 131.154 79.8438 130.909 79.2969 130.419C78.7557 129.929 78.4851 129.285 78.4851 128.488C78.4851 127.724 78.7642 127.115 79.3225 126.659C79.8865 126.203 80.6812 125.947 81.7065 125.89L84.2529 125.745V125.001C84.2529 124.46 84.082 124.036 83.7402 123.728C83.3984 123.421 82.9199 123.267 82.3047 123.267C81.7407 123.267 81.2821 123.392 80.929 123.643C80.5758 123.888 80.3507 124.232 80.2539 124.677H78.8184C78.8696 123.885 79.2114 123.236 79.8438 122.729C80.4818 122.216 81.3135 121.959 82.3389 121.959C83.3813 121.959 84.2074 122.222 84.8169 122.746C85.4321 123.27 85.7397 123.973 85.7397 124.856V131H84.3298V129.47H84.2957C84.0279 129.977 83.6348 130.385 83.1165 130.692C82.5981 131 82.0398 131.154 81.4417 131.154ZM92.0459 131.154C91.4079 131.154 90.8382 131.009 90.3369 130.718C89.8413 130.427 89.4482 130.02 89.1577 129.496H89.1235V131H87.7051V118.67H89.1919V123.6H89.2261C89.5052 123.087 89.8926 122.686 90.3882 122.395C90.8895 122.105 91.4506 121.959 92.0715 121.959C93.1938 121.959 94.0995 122.378 94.7888 123.216C95.4781 124.053 95.8228 125.167 95.8228 126.557C95.8228 127.952 95.4781 129.069 94.7888 129.906C94.0995 130.738 93.1852 131.154 92.0459 131.154ZM91.7554 123.267C90.9977 123.267 90.3796 123.572 89.9011 124.181C89.4226 124.785 89.1833 125.577 89.1833 126.557C89.1833 127.542 89.4226 128.337 89.9011 128.941C90.3796 129.545 90.9977 129.846 91.7554 129.846C92.5415 129.846 93.1624 129.553 93.6182 128.966C94.0739 128.374 94.3018 127.571 94.3018 126.557C94.3018 125.548 94.0739 124.748 93.6182 124.156C93.1624 123.563 92.5415 123.267 91.7554 123.267ZM97.4121 131V118.67H98.8989V131H97.4121ZM104.47 123.25C103.781 123.25 103.208 123.489 102.753 123.968C102.303 124.44 102.055 125.05 102.009 125.796H106.837C106.82 125.044 106.595 124.432 106.162 123.959C105.729 123.486 105.165 123.25 104.47 123.25ZM106.803 128.454H108.264C108.133 129.24 107.723 129.886 107.034 130.393C106.35 130.9 105.527 131.154 104.564 131.154C103.294 131.154 102.294 130.744 101.565 129.923C100.836 129.103 100.471 127.992 100.471 126.591C100.471 125.201 100.836 124.081 101.565 123.233C102.3 122.384 103.277 121.959 104.496 121.959C105.692 121.959 106.638 122.361 107.333 123.164C108.028 123.968 108.375 125.044 108.375 126.394V126.958H102.001V127.044C102.001 127.898 102.234 128.582 102.701 129.094C103.169 129.607 103.801 129.864 104.598 129.864C105.157 129.864 105.632 129.735 106.025 129.479C106.418 129.223 106.678 128.881 106.803 128.454Z" fill="black"/>
<path d="M58.1251 2.75C52.0845 2.75289 46.143 4.28442 40.8538 7.20196C35.5646 10.1195 31.0997 14.3281 27.8751 19.4359V12.375C27.8751 12.0103 27.7302 11.6606 27.4723 11.4027C27.2145 11.1449 26.8647 11 26.5001 11V4.125C26.5001 3.76033 26.3552 3.41059 26.0973 3.15273C25.8395 2.89487 25.4897 2.75 25.1251 2.75H16.8751C16.5104 2.75 16.1607 2.89487 15.9028 3.15273C15.6449 3.41059 15.5001 3.76033 15.5001 4.125V11C15.1354 11 14.7857 11.1449 14.5278 11.4027C14.2699 11.6606 14.1251 12.0103 14.1251 12.375V26.125C14.1251 26.4897 14.2699 26.8394 14.5278 27.0973C14.7857 27.3551 15.1354 27.5 15.5001 27.5H16.8751V34.375H15.5001C15.1354 34.375 14.7857 34.5199 14.5278 34.7777C14.2699 35.0356 14.1251 35.3853 14.1251 35.75V41.25C14.1251 41.6147 14.2699 41.9644 14.5278 42.2223C14.7857 42.4801 15.1354 42.625 15.5001 42.625H16.8751V46.75C16.8751 54.3646 19.133 61.8082 23.3635 68.1395C27.5939 74.4708 33.6068 79.4054 40.6418 82.3194C47.6767 85.2333 55.4178 85.9958 62.8861 84.5102C70.3543 83.0247 77.2144 79.3579 82.5987 73.9736C86.185 70.4068 89.0282 66.1642 90.9638 61.4913C92.8994 56.8184 93.8889 51.8079 93.8751 46.75V38.5C93.8751 18.7874 77.8376 2.75 58.1251 2.75ZM25.1158 24.75H16.8751V13.75H25.1251V24.7277L25.1158 24.75ZM18.2501 5.5H23.7501V11H18.2501V5.5ZM19.6251 27.5H22.3751V34.375H19.6251V27.5ZM16.8751 37.125H30.6251V39.875H16.8751V37.125ZM25.1251 42.625H27.8751V46.75C27.8751 61.9136 40.2115 74.25 55.3751 74.25C70.5386 74.25 82.8751 61.9136 82.8751 46.75V39.875C82.8722 37.3232 81.8572 34.8767 80.0528 33.0723C78.2484 31.2679 75.8019 30.2529 73.2501 30.25H69.1251V27.5H73.2501C76.531 27.5037 79.6765 28.8087 81.9964 31.1286C84.3164 33.4486 85.6214 36.5941 85.6251 39.875V46.75C85.6251 63.4299 72.055 77 55.3751 77C38.6951 77 25.1251 63.4299 25.1251 46.75V42.625ZM73.2501 24.75H69.1251V23.375C69.1251 23.0103 68.9802 22.6606 68.7223 22.4027C68.4645 22.1449 68.1147 22 67.7501 22H54.0001C53.6354 22 53.2857 22.1449 53.0278 22.4027C52.7699 22.6606 52.6251 23.0103 52.6251 23.375H45.7501C45.3854 23.375 45.0357 23.5199 44.7778 23.7777C44.5199 24.0356 44.3751 24.3853 44.3751 24.75V33C44.3751 33.3647 44.5199 33.7144 44.7778 33.9723C45.0357 34.2301 45.3854 34.375 45.7501 34.375H52.6251C52.6251 34.7397 52.7699 35.0894 53.0278 35.3473C53.2857 35.6051 53.6354 35.75 54.0001 35.75H67.7501C68.1147 35.75 68.4645 35.6051 68.7223 35.3473C68.9802 35.0894 69.1251 34.7397 69.1251 34.375V33H73.2501C75.0728 33.0021 76.8203 33.7271 78.1091 35.0159C79.398 36.3048 80.123 38.0523 80.1251 39.875V46.75C80.1251 60.3973 69.0223 71.5 55.3751 71.5C41.7279 71.5 30.6251 60.3973 30.6251 46.75V42.625H32.0001C32.3647 42.625 32.7145 42.4801 32.9723 42.2223C33.2302 41.9644 33.3751 41.6147 33.3751 41.25V35.75C33.3751 35.3853 33.2302 35.0356 32.9723 34.7777C32.7145 34.5199 32.3647 34.375 32.0001 34.375H30.934C31.9217 27.8708 35.208 21.936 40.1968 17.6474C45.1855 13.3587 51.5463 11.0003 58.1251 11C70.0561 11 80.2352 18.6382 84.0336 29.2808C82.6285 27.8455 80.9508 26.7053 79.099 25.9272C77.2472 25.1492 75.2587 24.7489 73.2501 24.75ZM52.6251 31.625H47.1251V26.125H52.6251V31.625ZM55.3751 24.75H66.3751V33H55.3751V24.75ZM91.1251 46.75C91.1251 66.4626 75.0876 82.5 55.3751 82.5C35.6625 82.5 19.6251 66.4626 19.6251 46.75V42.625H22.3751V46.75C22.3751 64.9463 37.1788 79.75 55.3751 79.75C73.5713 79.75 88.3751 64.9463 88.3751 46.75V38.5C88.3751 21.8201 74.805 8.25 58.1251 8.25C50.8167 8.25031 43.7555 10.8961 38.2464 15.6985C32.7374 20.5008 29.153 27.135 28.1556 34.375H25.3809C26.3868 26.4003 30.2683 19.0667 36.297 13.7504C42.3256 8.43407 50.0871 5.50045 58.1251 5.5C76.3213 5.5 91.1251 20.3037 91.1251 38.5V46.75Z" fill="black"/>
</svg>
