<svg width="88" height="88" viewBox="0 0 88 88" fill="none" xmlns="http://www.w3.org/2000/svg">
<path d="M50.1212 63.8643C58.9493 63.8643 66.1059 56.7077 66.1059 47.8796C66.1059 39.0514 58.9493 31.8948 50.1212 31.8948C41.2931 31.8948 34.1365 39.0514 34.1365 47.8796C34.1365 56.7077 41.2931 63.8643 50.1212 63.8643Z" stroke="black" stroke-width="2.57812" stroke-miterlimit="10" stroke-linecap="round" stroke-linejoin="round"/>
<path d="M50.1212 68.8266C61.6899 68.8266 71.0683 59.4483 71.0683 47.8795C71.0683 36.3108 61.6899 26.9324 50.1212 26.9324C38.5524 26.9324 29.1741 36.3108 29.1741 47.8795C29.1741 59.4483 38.5524 68.8266 50.1212 68.8266Z" stroke="black" stroke-width="2.57812" stroke-miterlimit="10" stroke-linecap="round" stroke-linejoin="round"/>
<path d="M55.4145 38.7167C58.5751 40.5465 60.7012 43.9648 60.7012 47.8796C60.7012 52.3762 57.8961 56.2177 53.9402 57.7495" stroke="black" stroke-width="2.57812" stroke-miterlimit="10" stroke-linecap="round" stroke-linejoin="round"/>
<path d="M50.8567 58.4346C50.6136 58.4513 50.3684 58.4597 50.1212 58.4597" stroke="black" stroke-width="2.57812" stroke-miterlimit="10" stroke-linecap="round" stroke-linejoin="round"/>
<path d="M5.58449 23.9896L7.90325 22.3795C9.105 21.5449 10.5333 21.0977 11.9965 21.0977H27.4348C28.5643 21.0977 29.6588 20.7051 30.5309 19.987L36.0689 13.0599C37.1282 11.7351 38.6941 10.8807 40.3888 10.8072C40.4774 10.8034 40.566 10.8013 40.6549 10.8013H59.5065C59.5972 10.8013 59.6876 10.8034 59.7779 10.8073C61.4365 10.8807 62.9742 11.6983 64.0342 12.9761L70.0505 20.2282C70.9169 20.928 71.9972 21.3098 73.1111 21.3098H77.5431C79.1221 21.3098 80.6384 21.9278 81.7674 23.0318C82.93 24.1686 83.5855 25.7259 83.5855 27.352V68.9009C83.5855 70.4804 82.9669 71.9971 81.8624 73.1263L81.7837 73.2067C80.6469 74.3688 79.0901 75.0236 77.4645 75.0236H27.1276C25.4636 75.0236 23.8325 75.4868 22.4167 76.3613C21.001 77.2358 19.3699 77.699 17.7058 77.699H13.4955C11.0984 77.699 8.80113 76.7389 7.11692 75.0332L4.9666 72.8554C4.15792 72.0364 3.70435 70.9318 3.70435 69.7807V27.5841C3.70435 26.1503 4.4068 24.8074 5.58449 23.9896Z" stroke="black" stroke-width="2.57812" stroke-miterlimit="10" stroke-linecap="round" stroke-linejoin="round"/>
<path d="M26.5326 20.8268L26.5376 17.7363C26.5391 16.8077 25.8489 16.054 24.997 16.054H14.8901C14.0404 16.054 13.351 16.8041 13.3496 17.7303L13.3446 20.8268" stroke="black" stroke-width="2.57812" stroke-miterlimit="10" stroke-linecap="round" stroke-linejoin="round"/>
<path d="M9.15723 28.3683H21.7163L25.6491 26.9323" stroke="black" stroke-width="2.57812" stroke-miterlimit="10" stroke-linecap="round" stroke-linejoin="round"/>
<path d="M39.6074 17.5151L42.4437 22.0246H57.7409L60.635 17.5151" stroke="black" stroke-width="2.57812" stroke-miterlimit="10" stroke-linecap="round" stroke-linejoin="round"/>
<path d="M21.8185 28.3683V69.6061" stroke="black" stroke-width="2.57812" stroke-miterlimit="10" stroke-linecap="round" stroke-linejoin="round"/>
</svg>
