<svg width="88" height="135" viewBox="0 0 88 135" fill="none" xmlns="http://www.w3.org/2000/svg">
<path d="M12.7173 131H11.1963V118.67H12.6917L19.4421 128.351H19.519V118.67H21.04V131H19.5447L12.7942 121.353H12.7173V131ZM23.2788 131V122.113H24.7656V131H23.2788ZM24.0222 120.618C23.7716 120.618 23.5551 120.527 23.3728 120.344C23.1905 120.162 23.0994 119.946 23.0994 119.695C23.0994 119.439 23.1905 119.222 23.3728 119.046C23.5551 118.863 23.7716 118.772 24.0222 118.772C24.2786 118.772 24.4979 118.863 24.6802 119.046C24.8625 119.222 24.9536 119.439 24.9536 119.695C24.9536 119.946 24.8625 120.162 24.6802 120.344C24.4979 120.527 24.2786 120.618 24.0222 120.618ZM28.3374 126.061L32.2681 122.113H34.071L30.2173 125.95L34.1907 131H32.4646L29.1663 126.864L28.3374 127.65V131H26.8506V118.67H28.3374V126.061ZM38.5229 131.154C37.2811 131.154 36.2842 130.741 35.5322 129.915C34.7803 129.083 34.4043 127.964 34.4043 126.557C34.4043 125.15 34.7803 124.033 35.5322 123.207C36.2842 122.375 37.2811 121.959 38.5229 121.959C39.7591 121.959 40.7532 122.375 41.5051 123.207C42.2571 124.033 42.6331 125.15 42.6331 126.557C42.6331 127.958 42.2571 129.075 41.5051 129.906C40.7532 130.738 39.7591 131.154 38.5229 131.154ZM36.6174 128.975C37.0903 129.556 37.7254 129.846 38.5229 129.846C39.3205 129.846 39.9528 129.559 40.4199 128.983C40.887 128.402 41.1206 127.593 41.1206 126.557C41.1206 125.52 40.887 124.714 40.4199 124.138C39.9528 123.557 39.3205 123.267 38.5229 123.267C37.7254 123.267 37.0903 123.557 36.6174 124.138C36.1503 124.719 35.9167 125.526 35.9167 126.557C35.9167 127.588 36.1503 128.394 36.6174 128.975ZM44.137 131V122.113H45.5383V123.532H45.5725C45.8289 123.036 46.1963 122.652 46.6748 122.378C47.1533 122.099 47.7258 121.959 48.3923 121.959C49.3608 121.959 50.1156 122.253 50.6567 122.84C51.1979 123.421 51.4685 124.218 51.4685 125.232V131H49.9817V125.497C49.9817 124.774 49.8108 124.224 49.469 123.848C49.1272 123.466 48.6174 123.275 47.9395 123.275C47.2388 123.275 46.6777 123.503 46.2561 123.959C45.8346 124.415 45.6238 125.019 45.6238 125.771V131H44.137ZM56.8262 131V129.906L63.8586 120.114V120.054H57.0654V118.67H65.7983V119.763L58.8 129.556V129.616H65.9436V131H56.8262ZM72.0276 131.205C70.8484 131.205 69.8629 130.872 69.071 130.205C68.2849 129.539 67.8605 128.681 67.7979 127.633H69.3103C69.3787 128.288 69.6663 128.824 70.1733 129.24C70.6803 129.65 71.3041 129.855 72.0447 129.855C72.8821 129.855 73.5628 129.593 74.0869 129.069C74.6167 128.545 74.8816 127.867 74.8816 127.035C74.8816 126.203 74.6167 125.523 74.0869 124.993C73.5628 124.457 72.8906 124.19 72.0703 124.19C71.495 124.19 70.9737 124.312 70.5066 124.557C70.0395 124.802 69.6806 125.141 69.4299 125.574H67.9858L68.6609 118.67H75.719V120.037H69.9255L69.5496 124.053H69.5837C69.8629 123.683 70.2445 123.392 70.7288 123.181C71.2187 122.971 71.757 122.865 72.3438 122.865C73.5286 122.865 74.5028 123.255 75.2661 124.036C76.0352 124.811 76.4197 125.796 76.4197 126.992C76.4197 128.229 76.0095 129.24 75.1892 130.026C74.3689 130.812 73.315 131.205 72.0276 131.205Z" fill="black"/>
<path d="M50.1212 63.8643C58.9493 63.8643 66.1059 56.7077 66.1059 47.8796C66.1059 39.0514 58.9493 31.8948 50.1212 31.8948C41.2931 31.8948 34.1365 39.0514 34.1365 47.8796C34.1365 56.7077 41.2931 63.8643 50.1212 63.8643Z" stroke="black" stroke-width="2.57812" stroke-miterlimit="10" stroke-linecap="round" stroke-linejoin="round"/>
<path d="M50.1212 68.8266C61.6899 68.8266 71.0683 59.4483 71.0683 47.8795C71.0683 36.3108 61.6899 26.9324 50.1212 26.9324C38.5524 26.9324 29.1741 36.3108 29.1741 47.8795C29.1741 59.4483 38.5524 68.8266 50.1212 68.8266Z" stroke="black" stroke-width="2.57812" stroke-miterlimit="10" stroke-linecap="round" stroke-linejoin="round"/>
<path d="M55.4145 38.7167C58.5751 40.5465 60.7012 43.9648 60.7012 47.8796C60.7012 52.3762 57.8961 56.2177 53.9402 57.7495" stroke="black" stroke-width="2.57812" stroke-miterlimit="10" stroke-linecap="round" stroke-linejoin="round"/>
<path d="M50.8567 58.4346C50.6136 58.4513 50.3684 58.4597 50.1212 58.4597" stroke="black" stroke-width="2.57812" stroke-miterlimit="10" stroke-linecap="round" stroke-linejoin="round"/>
<path d="M5.58449 23.9896L7.90325 22.3795C9.105 21.5449 10.5333 21.0977 11.9965 21.0977H27.4348C28.5643 21.0977 29.6588 20.7051 30.5309 19.987L36.0689 13.0599C37.1282 11.7351 38.6941 10.8807 40.3888 10.8072C40.4774 10.8034 40.566 10.8013 40.6549 10.8013H59.5065C59.5972 10.8013 59.6876 10.8034 59.7779 10.8073C61.4365 10.8807 62.9742 11.6983 64.0342 12.9761L70.0505 20.2282C70.9169 20.928 71.9972 21.3098 73.1111 21.3098H77.5431C79.1221 21.3098 80.6384 21.9278 81.7674 23.0318C82.93 24.1686 83.5855 25.7259 83.5855 27.352V68.9009C83.5855 70.4804 82.9669 71.9971 81.8624 73.1263L81.7837 73.2067C80.6469 74.3688 79.0901 75.0236 77.4645 75.0236H27.1276C25.4636 75.0236 23.8325 75.4868 22.4167 76.3613C21.001 77.2358 19.3699 77.699 17.7058 77.699H13.4955C11.0984 77.699 8.80113 76.7389 7.11692 75.0332L4.9666 72.8554C4.15792 72.0364 3.70435 70.9318 3.70435 69.7807V27.5841C3.70435 26.1503 4.4068 24.8074 5.58449 23.9896Z" stroke="black" stroke-width="2.57812" stroke-miterlimit="10" stroke-linecap="round" stroke-linejoin="round"/>
<path d="M26.5326 20.8268L26.5376 17.7363C26.5391 16.8077 25.8489 16.054 24.997 16.054H14.8901C14.0404 16.054 13.351 16.8041 13.3496 17.7303L13.3446 20.8268" stroke="black" stroke-width="2.57812" stroke-miterlimit="10" stroke-linecap="round" stroke-linejoin="round"/>
<path d="M9.15723 28.3683H21.7163L25.6491 26.9323" stroke="black" stroke-width="2.57812" stroke-miterlimit="10" stroke-linecap="round" stroke-linejoin="round"/>
<path d="M39.6074 17.5151L42.4437 22.0246H57.7409L60.635 17.5151" stroke="black" stroke-width="2.57812" stroke-miterlimit="10" stroke-linecap="round" stroke-linejoin="round"/>
<path d="M21.8185 28.3683V69.6061" stroke="black" stroke-width="2.57812" stroke-miterlimit="10" stroke-linecap="round" stroke-linejoin="round"/>
</svg>
