<svg width="88" height="135" viewBox="0 0 88 135" fill="none" xmlns="http://www.w3.org/2000/svg">
<path d="M0.922852 122.224C0.922852 121.148 1.31022 120.253 2.08496 119.541C2.8597 118.823 3.82812 118.465 4.99023 118.465C6.08968 118.465 7.02108 118.792 7.78442 119.447C8.54777 120.102 8.92944 120.903 8.92944 121.848C8.92944 122.532 8.74146 123.19 8.36548 123.822C7.9895 124.455 7.28312 125.306 6.24634 126.377L3.12744 129.599V129.633H9.13452V131H0.999756V129.94L5.34058 125.369C6.16659 124.497 6.71346 123.837 6.9812 123.386C7.25464 122.936 7.39136 122.455 7.39136 121.942C7.39136 121.35 7.1521 120.846 6.67358 120.43C6.20076 120.014 5.62541 119.806 4.94751 119.806C4.22404 119.806 3.6202 120.037 3.13599 120.498C2.65177 120.96 2.40967 121.535 2.40967 122.224V122.233H0.922852V122.224ZM15.2271 131.205C13.7972 131.205 12.6807 130.635 11.8774 129.496C11.0799 128.351 10.6812 126.796 10.6812 124.831C10.6812 122.882 11.0828 121.336 11.886 120.191C12.6949 119.04 13.8086 118.465 15.2271 118.465C16.6455 118.465 17.7535 119.037 18.551 120.182C19.3542 121.321 19.7559 122.868 19.7559 124.822C19.7559 126.787 19.3571 128.343 18.5596 129.488C17.762 130.633 16.6512 131.205 15.2271 131.205ZM13.0139 128.513C13.538 129.413 14.2757 129.864 15.2271 129.864C16.1784 129.864 16.9132 129.416 17.4316 128.522C17.95 127.622 18.2092 126.391 18.2092 124.831C18.2092 123.292 17.9472 122.073 17.4231 121.173C16.899 120.268 16.167 119.815 15.2271 119.815C14.2871 119.815 13.5522 120.268 13.0225 121.173C12.4927 122.079 12.2278 123.295 12.2278 124.822C12.2278 126.383 12.4898 127.613 13.0139 128.513ZM21.4905 131V122.113H22.8918V123.532H22.926C23.1425 123.048 23.4701 122.666 23.9087 122.387C24.3473 122.102 24.86 121.959 25.4468 121.959C26.0506 121.959 26.569 122.108 27.002 122.404C27.4349 122.694 27.7482 123.11 27.9419 123.651H27.9761C28.221 123.122 28.5885 122.709 29.0784 122.412C29.574 122.11 30.1351 121.959 30.7617 121.959C31.639 121.959 32.3397 122.224 32.8638 122.754C33.3936 123.278 33.6584 123.982 33.6584 124.865V131H32.1716V125.207C32.1716 124.597 32.0093 124.124 31.6846 123.788C31.3656 123.446 30.9127 123.275 30.3259 123.275C29.7392 123.275 29.2578 123.472 28.8818 123.865C28.5059 124.252 28.3179 124.748 28.3179 125.352V131H26.8311V125.044C26.8311 124.509 26.6659 124.081 26.3354 123.762C26.005 123.438 25.5636 123.275 25.011 123.275C24.4242 123.275 23.9372 123.48 23.5498 123.891C23.1681 124.301 22.9773 124.813 22.9773 125.429V131H21.4905ZM35.5554 131V122.113H36.9568V123.532H36.991C37.2074 123.048 37.535 122.666 37.9736 122.387C38.4123 122.102 38.925 121.959 39.5117 121.959C40.1156 121.959 40.634 122.108 41.0669 122.404C41.4998 122.694 41.8132 123.11 42.0068 123.651H42.041C42.286 123.122 42.6534 122.709 43.1433 122.412C43.6389 122.11 44.2 121.959 44.8267 121.959C45.7039 121.959 46.4046 122.224 46.9287 122.754C47.4585 123.278 47.7234 123.982 47.7234 124.865V131H46.2366V125.207C46.2366 124.597 46.0742 124.124 45.7495 123.788C45.4305 123.446 44.9776 123.275 44.3909 123.275C43.8041 123.275 43.3228 123.472 42.9468 123.865C42.5708 124.252 42.3828 124.748 42.3828 125.352V131H40.896V125.044C40.896 124.509 40.7308 124.081 40.4004 123.762C40.07 123.438 39.6285 123.275 39.0759 123.275C38.4892 123.275 38.0021 123.48 37.6147 123.891C37.2331 124.301 37.0422 124.813 37.0422 125.429V131H35.5554ZM60.9253 129.616V131H53.4399V118.67H54.978V129.616H60.9253ZM65.6934 123.25C65.0041 123.25 64.4316 123.489 63.9758 123.968C63.5258 124.44 63.278 125.05 63.2324 125.796H68.0603C68.0432 125.044 67.8182 124.432 67.3853 123.959C66.9523 123.486 66.3883 123.25 65.6934 123.25ZM68.0261 128.454H69.4873C69.3563 129.24 68.9461 129.886 68.2568 130.393C67.5732 130.9 66.7501 131.154 65.7874 131.154C64.517 131.154 63.5173 130.744 62.7881 129.923C62.0589 129.103 61.6943 127.992 61.6943 126.591C61.6943 125.201 62.0589 124.081 62.7881 123.233C63.5229 122.384 64.4999 121.959 65.719 121.959C66.9153 121.959 67.8609 122.361 68.5559 123.164C69.2509 123.968 69.5984 125.044 69.5984 126.394V126.958H63.2239V127.044C63.2239 127.898 63.4574 128.582 63.9246 129.094C64.3917 129.607 65.024 129.864 65.8215 129.864C66.3798 129.864 66.8555 129.735 67.2485 129.479C67.6416 129.223 67.9008 128.881 68.0261 128.454ZM71.1023 131V122.113H72.5037V123.532H72.5378C72.7942 123.036 73.1616 122.652 73.6401 122.378C74.1187 122.099 74.6912 121.959 75.3577 121.959C76.3261 121.959 77.0809 122.253 77.6221 122.84C78.1632 123.421 78.4338 124.218 78.4338 125.232V131H76.947V125.497C76.947 124.774 76.7761 124.224 76.4343 123.848C76.0925 123.466 75.5827 123.275 74.9048 123.275C74.2041 123.275 73.643 123.503 73.2214 123.959C72.7999 124.415 72.5891 125.019 72.5891 125.771V131H71.1023ZM80.177 124.566C80.177 123.802 80.4846 123.179 81.0999 122.694C81.7208 122.204 82.5183 121.959 83.4924 121.959C84.4096 121.959 85.1729 122.204 85.7825 122.694C86.392 123.184 86.7139 123.805 86.748 124.557H85.3296C85.2783 124.124 85.0846 123.785 84.7485 123.54C84.4181 123.295 83.9823 123.173 83.4412 123.173C82.9 123.173 82.4642 123.295 82.1338 123.54C81.8034 123.78 81.6382 124.096 81.6382 124.489C81.6382 125.093 82.1309 125.52 83.1165 125.771L84.4922 126.104C85.3866 126.332 86.016 126.628 86.3806 126.992C86.7509 127.351 86.936 127.858 86.936 128.513C86.936 129.288 86.6056 129.923 85.9448 130.419C85.284 130.909 84.4352 131.154 83.3984 131.154C82.43 131.154 81.6296 130.915 80.9973 130.436C80.3707 129.952 80.0175 129.314 79.9377 128.522H81.4246C81.5898 129.468 82.2791 129.94 83.4924 129.94C84.0906 129.94 84.5634 129.824 84.9109 129.59C85.2641 129.351 85.4407 129.029 85.4407 128.625C85.4407 128.306 85.3353 128.052 85.1245 127.864C84.9194 127.676 84.5691 127.517 84.0735 127.385L82.5098 126.984C80.9546 126.585 80.177 125.779 80.177 124.566Z" fill="black"/>
<path d="M49.3282 58.7235H46.0626V61.4735H49.3282V58.7235Z" fill="black"/>
<path d="M65.3703 58.7235H52.5361V61.4735H65.3703V58.7235Z" fill="black"/>
<path d="M60.8521 78.375H27.1481L25.9299 69.2037H62.069L60.8521 78.375ZM29.5571 75.625H58.4431L58.9299 71.9537H29.0704L29.5571 75.625Z" fill="black"/>
<path d="M57.4889 86.1987H30.5114V75.625H57.4889V86.1987ZM33.2614 83.4487H54.7389V78.375H33.2614V83.4487Z" fill="black"/>
<path d="M68.3238 45.7188H19.6763V13.75H68.3238V45.7188ZM22.4263 42.9688H65.5738V16.5H27.0188C26.9693 16.5082 26.8896 16.5138 26.8126 16.5138L22.4263 16.5V42.9688Z" fill="black"/>
<path d="M26.8126 16.5138H25.4376V13.75H27.0188V15.125H28.1876L27.0188 15.136V16.5C26.9693 16.5082 26.8909 16.5138 26.8126 16.5138Z" fill="black"/>
<path d="M61.1876 16.5138L60.9511 16.5L60.9662 15.1388L59.8126 15.125H60.9662L60.9813 13.75H62.5626V16.5L61.1876 16.5138Z" fill="black"/>
<path d="M65.5738 52.0163H22.4263V42.9688H65.5738V52.0163ZM25.1763 49.2663H62.8238V45.7188H25.1763V49.2663Z" fill="black"/>
<path d="M61.1876 16.5138L60.9511 16.5C59.3822 16.346 57.6868 16.3337 56.0753 16.3337L33.4538 16.335L31.9248 16.3337C30.3133 16.3337 28.618 16.346 27.1577 16.4932L27.0188 16.5C26.9693 16.5083 26.8896 16.5138 26.8126 16.5138L22.4263 16.5V7.04004H65.5738V16.5L61.1876 16.5138ZM61.0487 13.75H62.8238V9.79004H25.1763V13.75H26.9515C28.5217 13.596 30.268 13.5837 31.9248 13.5837L54.5463 13.585L56.0753 13.5837C57.7322 13.5837 59.4798 13.596 61.0487 13.75Z" fill="black"/>
<path d="M65.0554 9.79H22.9446L24.7019 7.5625C27.9991 3.38525 35.574 0.6875 44 0.6875C52.426 0.6875 60.0009 3.38662 63.2981 7.5625L65.0554 9.79ZM29.4003 7.04H58.5998C55.1581 4.81937 49.7585 3.4375 44 3.4375C38.2415 3.4375 32.8419 4.81937 29.4003 7.04Z" fill="black"/>
<path d="M27.5 71.9537H18.2188V49.2662H32.4225V66.6875H29.6725V52.0162H20.9688V69.2037H27.5V71.9537Z" fill="black"/>
<path d="M69.7811 71.9537H60.4999V69.2037H67.0311V52.0162H32.4224V66.6875H29.6724V49.2662H69.7811V71.9537Z" fill="black"/>
<path d="M32.4224 66.6875H29.6724V69.7812H32.4224V66.6875Z" fill="black"/>
<path d="M32.4224 50.0775H29.6724V50.6413H32.4224V50.0775Z" fill="black"/>
<path d="M28.1875 15.1386H25.4375V23.8974H28.1875V15.1386Z" fill="black"/>
<path d="M35.0625 15.125H32.3125V23.8906H35.0625V15.125Z" fill="black"/>
<path d="M41.9375 15.125H39.1875V23.8906H41.9375V15.125Z" fill="black"/>
<path d="M48.8125 15.125H46.0625V23.8906H48.8125V15.125Z" fill="black"/>
<path d="M55.6875 15.125H52.9375V23.8906H55.6875V15.125Z" fill="black"/>
<path d="M62.5625 15.1388H59.8125V23.8975H62.5625V15.1388Z" fill="black"/>
<path d="M28.1875 34.375H25.4375V43.1406H28.1875V34.375Z" fill="black"/>
<path d="M35.0625 34.375H32.3125V43.1406H35.0625V34.375Z" fill="black"/>
<path d="M41.9375 34.375H39.1875V43.1406H41.9375V34.375Z" fill="black"/>
<path d="M48.8125 34.375H46.0625V43.1406H48.8125V34.375Z" fill="black"/>
<path d="M55.6875 34.375H52.9375V43.1406H55.6875V34.375Z" fill="black"/>
<path d="M62.5625 34.375H59.8125V43.1406H62.5625V34.375Z" fill="black"/>
</svg>
