<svg width="88" height="88" viewBox="0 0 88 88" fill="none" xmlns="http://www.w3.org/2000/svg">
<path d="M49.3282 58.7235H46.0626V61.4735H49.3282V58.7235Z" fill="black"/>
<path d="M65.3703 58.7235H52.5361V61.4735H65.3703V58.7235Z" fill="black"/>
<path d="M60.8521 78.375H27.1481L25.9299 69.2037H62.069L60.8521 78.375ZM29.5571 75.625H58.4431L58.9299 71.9537H29.0704L29.5571 75.625Z" fill="black"/>
<path d="M57.4889 86.1987H30.5114V75.625H57.4889V86.1987ZM33.2614 83.4487H54.7389V78.375H33.2614V83.4487Z" fill="black"/>
<path d="M68.3238 45.7188H19.6763V13.75H68.3238V45.7188ZM22.4263 42.9688H65.5738V16.5H27.0188C26.9693 16.5082 26.8896 16.5138 26.8126 16.5138L22.4263 16.5V42.9688Z" fill="black"/>
<path d="M26.8126 16.5138H25.4376V13.75H27.0188V15.125H28.1876L27.0188 15.136V16.5C26.9693 16.5082 26.8909 16.5138 26.8126 16.5138Z" fill="black"/>
<path d="M61.1876 16.5138L60.9511 16.5L60.9662 15.1388L59.8126 15.125H60.9662L60.9813 13.75H62.5626V16.5L61.1876 16.5138Z" fill="black"/>
<path d="M65.5738 52.0163H22.4263V42.9688H65.5738V52.0163ZM25.1763 49.2663H62.8238V45.7188H25.1763V49.2663Z" fill="black"/>
<path d="M61.1876 16.5138L60.9511 16.5C59.3822 16.346 57.6868 16.3337 56.0753 16.3337L33.4538 16.335L31.9248 16.3337C30.3133 16.3337 28.618 16.346 27.1577 16.4932L27.0188 16.5C26.9693 16.5083 26.8896 16.5138 26.8126 16.5138L22.4263 16.5V7.04004H65.5738V16.5L61.1876 16.5138ZM61.0487 13.75H62.8238V9.79004H25.1763V13.75H26.9515C28.5217 13.596 30.268 13.5837 31.9248 13.5837L54.5463 13.585L56.0753 13.5837C57.7322 13.5837 59.4798 13.596 61.0487 13.75Z" fill="black"/>
<path d="M65.0554 9.79H22.9446L24.7019 7.5625C27.9991 3.38525 35.574 0.6875 44 0.6875C52.426 0.6875 60.0009 3.38662 63.2981 7.5625L65.0554 9.79ZM29.4003 7.04H58.5998C55.1581 4.81937 49.7585 3.4375 44 3.4375C38.2415 3.4375 32.8419 4.81937 29.4003 7.04Z" fill="black"/>
<path d="M27.5 71.9537H18.2188V49.2662H32.4225V66.6875H29.6725V52.0162H20.9688V69.2037H27.5V71.9537Z" fill="black"/>
<path d="M69.7811 71.9537H60.4999V69.2037H67.0311V52.0162H32.4224V66.6875H29.6724V49.2662H69.7811V71.9537Z" fill="black"/>
<path d="M32.4224 66.6875H29.6724V69.7812H32.4224V66.6875Z" fill="black"/>
<path d="M32.4224 50.0775H29.6724V50.6413H32.4224V50.0775Z" fill="black"/>
<path d="M28.1875 15.1386H25.4375V23.8974H28.1875V15.1386Z" fill="black"/>
<path d="M35.0625 15.125H32.3125V23.8906H35.0625V15.125Z" fill="black"/>
<path d="M41.9375 15.125H39.1875V23.8906H41.9375V15.125Z" fill="black"/>
<path d="M48.8125 15.125H46.0625V23.8906H48.8125V15.125Z" fill="black"/>
<path d="M55.6875 15.125H52.9375V23.8906H55.6875V15.125Z" fill="black"/>
<path d="M62.5625 15.1388H59.8125V23.8975H62.5625V15.1388Z" fill="black"/>
<path d="M28.1875 34.375H25.4375V43.1406H28.1875V34.375Z" fill="black"/>
<path d="M35.0625 34.375H32.3125V43.1406H35.0625V34.375Z" fill="black"/>
<path d="M41.9375 34.375H39.1875V43.1406H41.9375V34.375Z" fill="black"/>
<path d="M48.8125 34.375H46.0625V43.1406H48.8125V34.375Z" fill="black"/>
<path d="M55.6875 34.375H52.9375V43.1406H55.6875V34.375Z" fill="black"/>
<path d="M62.5625 34.375H59.8125V43.1406H62.5625V34.375Z" fill="black"/>
</svg>
