<svg width="24" height="24" viewBox="0 0 24 24" fill="none" xmlns="http://www.w3.org/2000/svg">
<path d="M18.3621 19.8717H5.64229C4.80013 19.8717 4.11749 19.189 4.11749 18.3469V5.62703C4.11749 4.78487 4.80018 4.10223 5.64229 4.10223H18.3621C19.2043 4.10223 19.8869 4.78492 19.8869 5.62703V18.3469C19.8869 19.189 19.2043 19.8717 18.3621 19.8717Z" stroke="black" stroke-width="0.703125" stroke-miterlimit="10" stroke-linecap="round" stroke-linejoin="round"/>
<path d="M7.23846 3.88961V1.55743" stroke="black" stroke-width="0.703125" stroke-miterlimit="10" stroke-linecap="round" stroke-linejoin="round"/>
<path d="M9.62036 3.88961V1.55744" stroke="black" stroke-width="0.703125" stroke-miterlimit="10" stroke-linecap="round" stroke-linejoin="round"/>
<path d="M12.0022 3.88961V1.55744" stroke="black" stroke-width="0.703125" stroke-miterlimit="10" stroke-linecap="round" stroke-linejoin="round"/>
<path d="M14.3841 3.88961V1.55744" stroke="black" stroke-width="0.703125" stroke-miterlimit="10" stroke-linecap="round" stroke-linejoin="round"/>
<path d="M16.766 3.88961V1.55744" stroke="black" stroke-width="0.703125" stroke-miterlimit="10" stroke-linecap="round" stroke-linejoin="round"/>
<path d="M7.23846 22.4165V20.0843" stroke="black" stroke-width="0.703125" stroke-miterlimit="10" stroke-linecap="round" stroke-linejoin="round"/>
<path d="M9.62036 22.4165V20.0843" stroke="black" stroke-width="0.703125" stroke-miterlimit="10" stroke-linecap="round" stroke-linejoin="round"/>
<path d="M12.0022 22.4165V20.0843" stroke="black" stroke-width="0.703125" stroke-miterlimit="10" stroke-linecap="round" stroke-linejoin="round"/>
<path d="M14.3841 22.4165V20.0843" stroke="black" stroke-width="0.703125" stroke-miterlimit="10" stroke-linecap="round" stroke-linejoin="round"/>
<path d="M16.766 22.4165V20.0843" stroke="black" stroke-width="0.703125" stroke-miterlimit="10" stroke-linecap="round" stroke-linejoin="round"/>
<path d="M3.90491 16.8038H1.57269" stroke="black" stroke-width="0.703125" stroke-miterlimit="10" stroke-linecap="round" stroke-linejoin="round"/>
<path d="M3.90491 14.3954H1.57269" stroke="black" stroke-width="0.703125" stroke-miterlimit="10" stroke-linecap="round" stroke-linejoin="round"/>
<path d="M3.90491 11.9869H1.57269" stroke="black" stroke-width="0.703125" stroke-miterlimit="10" stroke-linecap="round" stroke-linejoin="round"/>
<path d="M3.90491 9.57854H1.57269" stroke="black" stroke-width="0.703125" stroke-miterlimit="10" stroke-linecap="round" stroke-linejoin="round"/>
<path d="M3.90491 7.1701H1.57269" stroke="black" stroke-width="0.703125" stroke-miterlimit="10" stroke-linecap="round" stroke-linejoin="round"/>
<path d="M22.4317 16.8038H20.0995" stroke="black" stroke-width="0.703125" stroke-miterlimit="10" stroke-linecap="round" stroke-linejoin="round"/>
<path d="M22.4317 14.3954H20.0995" stroke="black" stroke-width="0.703125" stroke-miterlimit="10" stroke-linecap="round" stroke-linejoin="round"/>
<path d="M22.4317 11.9869H20.0995" stroke="black" stroke-width="0.703125" stroke-miterlimit="10" stroke-linecap="round" stroke-linejoin="round"/>
<path d="M22.4317 9.57854H20.0995" stroke="black" stroke-width="0.703125" stroke-miterlimit="10" stroke-linecap="round" stroke-linejoin="round"/>
<path d="M22.4317 7.1701H20.0995" stroke="black" stroke-width="0.703125" stroke-miterlimit="10" stroke-linecap="round" stroke-linejoin="round"/>
<path d="M15.8795 13.7913V10.1826C15.8795 9.80977 15.6867 9.46341 15.3699 9.26696L12.5699 7.53094C12.2222 7.31532 11.7823 7.31532 11.4346 7.53094L8.63463 9.26696C8.31775 9.46341 8.125 9.80972 8.125 10.1826V13.7913C8.125 14.1641 8.31775 14.5104 8.63463 14.7069L11.4346 16.4429C11.7823 16.6585 12.2222 16.6585 12.5699 16.4429L15.3699 14.7069C15.6867 14.5104 15.8795 14.1641 15.8795 13.7913Z" stroke="black" stroke-width="0.703125" stroke-miterlimit="10" stroke-linecap="round" stroke-linejoin="round"/>
<path d="M12.0022 13.7952C13.0065 13.7952 13.8207 12.981 13.8207 11.9767C13.8207 10.9724 13.0065 10.1582 12.0022 10.1582C10.9979 10.1582 10.1837 10.9724 10.1837 11.9767C10.1837 12.981 10.9979 13.7952 12.0022 13.7952Z" stroke="black" stroke-width="0.703125" stroke-miterlimit="10" stroke-linecap="round" stroke-linejoin="round"/>
</svg>
