<svg width="24" height="24" viewBox="0 0 24 24" fill="none" xmlns="http://www.w3.org/2000/svg">
<path d="M1.66209 15.9234C2.69754 18.6425 4.77574 20.8496 7.40621 22.0561C7.42042 22.0644 7.43457 22.071 7.45049 22.0761C8.83927 22.7057 10.3786 23.0593 12 23.0593C13.3504 23.0593 14.6446 22.8151 15.8419 22.37C15.8721 22.365 15.9 22.3538 15.9266 22.3366C18.6332 21.3049 20.8323 19.2403 22.0415 16.6263C22.0649 16.5977 22.0796 16.5638 22.0869 16.5261C22.7097 15.1435 23.0594 13.6123 23.0594 12.0001C23.0594 5.90194 18.0982 0.940704 12 0.940704C10.6357 0.940704 9.32914 1.19067 8.12144 1.64444C8.11923 1.64527 8.11713 1.64604 8.11498 1.64698C5.37937 2.67696 3.15811 4.7614 1.94555 7.40249C1.93803 7.41565 1.93173 7.4288 1.92698 7.44356C1.29538 8.83411 0.940613 10.376 0.940613 12.0001C0.940613 13.3547 1.1866 14.6527 1.63434 15.8533C1.63943 15.8781 1.6486 15.9011 1.66209 15.9234ZM7.29151 21.5004C4.94234 20.3314 3.0868 18.3171 2.12277 15.8576L7.29151 10.6835V21.5004ZM12 22.6065C10.4869 22.6065 9.048 22.2857 7.74434 21.7123V14.4017L15.3842 22.0496C14.3206 22.4088 13.1833 22.6065 12 22.6065ZM15.8536 21.8787L10.6915 16.7113H21.4991C20.3292 19.0603 18.314 20.9156 15.8536 21.8787ZM22.6066 12.0001C22.6066 13.5143 22.2854 14.9541 21.7112 16.2584H14.4067L22.0476 8.60963C22.4081 9.67504 22.6066 10.8145 22.6066 12.0001ZM16.7083 2.49952C19.0569 3.66819 20.9121 5.68171 21.8764 8.14038L16.7083 13.3138V2.49952ZM13.8018 16.2233C13.7914 16.2337 13.7864 16.2467 13.7785 16.2584H10.2831C10.2701 16.2584 10.2589 16.2637 10.2465 16.2658L7.7795 13.7962C7.76911 13.7858 7.75606 13.7808 7.74434 13.7728V10.2861C7.74434 10.2696 7.73832 10.2551 7.73495 10.2396L10.198 7.77406C10.2084 7.76367 10.2134 7.75062 10.2213 7.73891H13.7165C13.7296 7.73891 13.7409 7.7336 13.7534 7.7315L16.2203 10.2009C16.2307 10.2113 16.2438 10.2164 16.2555 10.2243V13.711C16.2555 13.7276 16.2615 13.7422 16.2649 13.7577L13.8018 16.2233ZM12 1.39353C13.5131 1.39353 14.9519 1.7142 16.2555 2.28759V9.59544L8.61761 1.94973C9.6807 1.59098 10.8174 1.39353 12 1.39353ZM8.1482 2.12054L13.3084 7.28608H2.5023C3.67268 4.93768 5.68792 3.08313 8.1482 2.12054ZM2.29009 7.73891H9.59314L1.95163 15.3882C1.59161 14.3235 1.39344 13.1848 1.39344 12.0001C1.39344 10.4849 1.7151 9.044 2.29009 7.73891Z" fill="black"/>
</svg>
